<?xml version="1.0" standalone="yes"?>

<svg version="1.1" viewBox="0.0 0.0 960.0 720.0" fill="none" stroke="none" stroke-linecap="square" stroke-miterlimit="10" xmlns="http://www.w3.org/2000/svg" xmlns:xlink="http://www.w3.org/1999/xlink"><clipPath id="p.0"><path d="m0 0l960.0 0l0 720.0l-960.0 0l0 -720.0z" clip-rule="nonzero"></path></clipPath><g clip-path="url(#p.0)"><path fill="#000000" fill-opacity="0.0" d="m0 0l960.0 0l0 720.0l-960.0 0z" fill-rule="nonzero"></path><path fill="#cfe2f3" d="m323.8701 331.61285l0 -110.965866l156.9029 0l39.225677 55.482925l-39.225677 55.48294z" fill-rule="nonzero"></path><path stroke="#000000" stroke-width="2.0" stroke-linejoin="round" stroke-linecap="butt" d="m323.8701 331.61285l0 -110.965866l156.9029 0l39.225677 55.482925l-39.225677 55.48294z" fill-rule="nonzero"></path><path fill="#000000" fill-opacity="0.0" d="m281.2874 276.1299l42.582672 0" fill-rule="nonzero"></path><path stroke="#000000" stroke-width="2.0" stroke-linejoin="round" stroke-linecap="butt" d="m281.2874 276.1299l42.582672 0" fill-rule="nonzero"></path><path fill="#000000" fill-opacity="0.0" d="m521.2874 276.1299l42.58264 0" fill-rule="nonzero"></path><path stroke="#000000" stroke-width="2.0" stroke-linejoin="round" stroke-linecap="butt" d="m521.2874 276.1299l42.58264 0" fill-rule="nonzero"></path><path fill="#000000" fill-opacity="0.0" d="m575.3544 278.22842c3.0045776 -4.5363464 12.334778 -26.915268 18.027405 -27.217926c5.692627 -0.30264282 11.06842 24.948364 16.128357 25.402039c5.0599365 0.4536438 9.645447 -22.529037 14.231262 -22.680054c4.5858154 -0.15101624 9.330505 17.691284 13.28363 21.773956c3.953125 4.0826416 7.272583 6.0486145 10.435059 2.7219849c3.1625366 -3.3266602 7.116577 -18.90158 8.539917 -22.681915" fill-rule="nonzero"></path><path stroke="#000000" stroke-width="2.0" stroke-linejoin="round" stroke-linecap="butt" d="m575.3544 278.22842c3.0045776 -4.5363464 12.334778 -26.915268 18.027405 -27.217926c5.692627 -0.30264282 11.06842 24.948364 16.128357 25.402039c5.0599365 0.4536438 9.645447 -22.529037 14.231262 -22.680054c4.5858154 -0.15101624 9.330505 17.691284 13.28363 21.773956c3.953125 4.0826416 7.272583 6.0486145 10.435059 2.7219849c3.1625366 -3.3266602 7.116577 -18.90158 8.539917 -22.681915" fill-rule="nonzero"></path><path fill="#000000" fill-opacity="0.0" d="m184.0 252.64043l0 28.377945" fill-rule="nonzero"></path><path stroke="#000000" stroke-width="2.0" stroke-linejoin="round" stroke-linecap="butt" d="m184.0 252.64043l0 28.377945" fill-rule="nonzero"></path><path fill="#000000" fill-opacity="0.0" d="m212.37796 252.64043l0 28.377945" fill-rule="nonzero"></path><path stroke="#000000" stroke-width="2.0" stroke-linejoin="round" stroke-linecap="butt" d="m212.37796 252.64043l0 28.377945" fill-rule="nonzero"></path><path fill="#000000" fill-opacity="0.0" d="m184.0 252.64043l28.37796 0" fill-rule="nonzero"></path><path stroke="#000000" stroke-width="2.0" stroke-linejoin="round" stroke-linecap="butt" d="m184.0 252.64043l28.37796 0" fill-rule="nonzero"></path><path fill="#000000" fill-opacity="0.0" d="m240.0 252.64043l0 28.377945" fill-rule="nonzero"></path><path stroke="#000000" stroke-width="2.0" stroke-linejoin="round" stroke-linecap="butt" d="m240.0 252.64043l0 28.377945" fill-rule="nonzero"></path><path fill="#000000" fill-opacity="0.0" d="m268.37796 252.64043l0 28.377945" fill-rule="nonzero"></path><path stroke="#000000" stroke-width="2.0" stroke-linejoin="round" stroke-linecap="butt" d="m268.37796 252.64043l0 28.377945" fill-rule="nonzero"></path><path fill="#000000" fill-opacity="0.0" d="m240.0 252.64043l28.37796 0" fill-rule="nonzero"></path><path stroke="#000000" stroke-width="2.0" stroke-linejoin="round" stroke-linecap="butt" d="m240.0 252.64043l28.37796 0" fill-rule="nonzero"></path><path fill="#000000" fill-opacity="0.0" d="m212.37796 281.01837l28.377945 0" fill-rule="nonzero"></path><path stroke="#000000" stroke-width="2.0" stroke-linejoin="round" stroke-linecap="butt" d="m212.37796 281.01837l28.377945 0" fill-rule="nonzero"></path><path fill="#000000" fill-opacity="0.0" d="m323.8701 254.19292l50.33069 0l0 43.87401l-50.33069 0z" fill-rule="nonzero"></path><path fill="#000000" d="m341.47293 282.29398l0 -13.59375l1.8125 0l0 13.59375l-1.8125 0zm4.870819 0l0 -13.59375l1.84375 0l7.140625 10.671875l0 -10.671875l1.7187195 0l0 13.59375l-1.8437195 0l-7.140625 -10.6875l0 10.6875l-1.71875 0z" fill-rule="nonzero"></path><path fill="#000000" fill-opacity="0.0" d="m444.12454 254.19292l69.0394 0l0 43.87401l-69.0394 0z" fill-rule="nonzero"></path><path fill="#000000" d="m459.87592 275.66898q0 -3.390625 1.8125 -5.296875q1.828125 -1.921875 4.703125 -1.921875q1.875 0 3.390625 0.90625q1.515625 0.890625 2.296875 2.5q0.796875 1.609375 0.796875 3.65625q0 2.0625 -0.84375 3.703125q-0.828125 1.625 -2.359375 2.46875q-1.53125 0.84375 -3.296875 0.84375q-1.921875 0 -3.4375 -0.921875q-1.5 -0.9375 -2.28125 -2.53125q-0.78125 -1.609375 -0.78125 -3.40625zm1.859375 0.03125q0 2.453125 1.3125 3.875q1.328125 1.40625 3.3125 1.40625q2.03125 0 3.34375 -1.421875q1.3125 -1.4375 1.3125 -4.0625q0 -1.65625 -0.5625 -2.890625q-0.546875 -1.234375 -1.640625 -1.921875q-1.078125 -0.6875 -2.421875 -0.6875q-1.90625 0 -3.28125 1.3125q-1.375 1.3125 -1.375 4.390625zm22.12082 -7.0l1.796875 0l0 7.84375q0 2.0625 -0.46875 3.265625q-0.453125 1.203125 -1.671875 1.96875q-1.203125 0.75 -3.171875 0.75q-1.90625 0 -3.125 -0.65625q-1.21875 -0.65625 -1.734375 -1.90625q-0.515625 -1.25 -0.515625 -3.421875l0 -7.84375l1.796875 0l0 7.84375q0 1.765625 0.328125 2.609375q0.328125 0.84375 1.125 1.296875q0.8125 0.453125 1.96875 0.453125q1.984375 0 2.828125 -0.890625q0.84375 -0.90625 0.84375 -3.46875l0 -7.84375zm8.004181 13.59375l0 -12.0l-4.46875 0l0 -1.59375l10.765625 0l0 1.59375l-4.5 0l0 12.0l-1.796875 0z" fill-rule="nonzero"></path><path fill="#000000" fill-opacity="0.0" d="m303.49463 214.50787l209.66931 0l0 123.24411l-209.66931 0z" fill-rule="nonzero"></path><path fill="#000000" d="m390.1033 282.29398l0 -13.59375l4.6875 0q1.578125 0 2.421875 0.1875q1.15625 0.265625 1.984375 0.96875q1.078125 0.921875 1.609375 2.34375q0.53125 1.40625 0.53125 3.21875q0 1.546875 -0.359375 2.75q-0.359375 1.1875 -0.921875 1.984375q-0.5625 0.78125 -1.234375 1.234375q-0.671875 0.4375 -1.625 0.671875q-0.953125 0.234375 -2.1875 0.234375l-4.90625 0zm1.796875 -1.609375l2.90625 0q1.34375 0 2.109375 -0.25q0.765625 -0.25 1.21875 -0.703125q0.640625 -0.640625 1.0 -1.71875q0.359375 -1.078125 0.359375 -2.625q0 -2.125 -0.703125 -3.265625q-0.703125 -1.15625 -1.703125 -1.546875q-0.71875 -0.28125 -2.328125 -0.28125l-2.859375 0l0 10.390625zm10.176056 1.609375l5.234375 -13.59375l1.9375 0l5.5625 13.59375l-2.046875 0l-1.59375 -4.125l-5.6875 0l-1.484375 4.125l-1.921875 0zm3.921875 -5.578125l4.609375 0l-1.40625 -3.78125q-0.65625 -1.703125 -0.96875 -2.8125q-0.265625 1.3125 -0.734375 2.59375l-1.5 4.0zm19.724823 0.8125l1.796875 0.453125q-0.5625 2.21875 -2.03125 3.390625q-1.46875 1.15625 -3.59375 1.15625q-2.203125 0 -3.578125 -0.890625q-1.375 -0.90625 -2.09375 -2.59375q-0.71875 -1.703125 -0.71875 -3.65625q0 -2.125 0.796875 -3.703125q0.8125 -1.578125 2.3125 -2.390625q1.5 -0.828125 3.296875 -0.828125q2.046875 0 3.4375 1.046875q1.390625 1.03125 1.9375 2.90625l-1.765625 0.421875q-0.46875 -1.484375 -1.375 -2.15625q-0.90625 -0.6875 -2.265625 -0.6875q-1.5625 0 -2.625 0.75q-1.046875 0.75 -1.484375 2.03125q-0.421875 1.265625 -0.421875 2.609375q0 1.734375 0.5 3.03125q0.515625 1.28125 1.578125 1.921875q1.078125 0.640625 2.3125 0.640625q1.515625 0 2.5625 -0.859375q1.046875 -0.875 1.421875 -2.59375z" fill-rule="nonzero"></path></g></svg>

