<?xml version="1.0" encoding="iso-8859-1"?>
<!-- Generator: Adobe Illustrator 13.0.0, SVG Export Plug-In . SVG Version: 6.00 Build 14948)  -->
<!DOCTYPE svg PUBLIC "-//W3C//DTD SVG 1.1//EN" "http://www.w3.org/Graphics/SVG/1.1/DTD/svg11.dtd">
<svg version="1.1" id="Layer_1" xmlns="http://www.w3.org/2000/svg" xmlns:xlink="http://www.w3.org/1999/xlink" x="0px" y="0px"
	 width="192.756px" height="192.756px" viewBox="0 0 192.756 192.756" style="enable-background:new 0 0 192.756 192.756;"
	 xml:space="preserve">
<g>
	<polygon style="fill-rule:evenodd;clip-rule:evenodd;fill:#FFFFFF;" points="0,0 192.756,0 192.756,192.756 0,192.756 0,0 	"/>
	<path style="fill-rule:evenodd;clip-rule:evenodd;fill:#040606;" d="M70.901,125.432h113.351V67.683H70.901V125.432L70.901,125.432
		z M115.24,119.889h-11.621l-11.8-21.633h-1.43v13.588c0,5.541,1.251,5.721,5.006,6.256v1.789H76.085V118.1
		c3.934-0.535,5.006-0.715,5.006-6.256V81.449c0-5.9-1.609-6.079-5.006-6.437v-1.609h18.237c4.111,0,16.091,0.537,16.091,11.979
		c0,8.582-5.9,10.728-8.939,11.8l11.442,19.667c0.715,1.25,1.608,1.25,2.324,1.25V119.889L115.24,119.889z M134.013,75.549v36.294
		c0,5.898,1.431,5.898,5.542,6.256v1.789h-20.202V118.1c4.111-0.357,5.542-0.535,5.542-6.256V75.549
		c-3.934,0.179-9.833,0.536-10.906,11.621h-1.608l0.179-13.767h33.97V87.17h-1.609C143.846,76.085,137.946,75.728,134.013,75.549
		L134.013,75.549z M166.73,121.676c-13.229,0-20.381-11.264-20.381-24.137c0-13.944,8.224-24.672,20.023-24.672
		c5.186,0,9.476,3.397,11.085,3.397c1.431,0,1.967-1.609,2.503-3.218h1.609v16.091h-1.431c-1.967-6.079-6.794-14.125-13.229-14.125
		c-8.225,0-10.549,10.549-10.549,22.17c0,4.29,0.357,10.905,2.503,15.196c2.324,5.006,6.794,6.08,8.582,6.08
		c4.47,0,8.761-2.146,13.409-8.582l1.608,1.787C178.352,117.385,174.062,121.676,166.73,121.676L166.73,121.676z"/>
	<path style="fill-rule:evenodd;clip-rule:evenodd;fill:#040606;" d="M93.786,75.728c-3.04,0-3.218,0.715-3.397,2.861V96.11
		c7.33,0,10.37-1.609,10.37-10.548C100.759,78.589,98.434,75.728,93.786,75.728L93.786,75.728z"/>
	<path style="fill-rule:evenodd;clip-rule:evenodd;fill:#040606;" d="M65.18,68.577v-1.251H8.504v56.854h1.251
		C9.755,93.428,34.607,68.577,65.18,68.577L65.18,68.577z"/>
	<path style="fill-rule:evenodd;clip-rule:evenodd;fill:#040606;" d="M65.716,124.895v-13.768c-5.721,0.18-13.23,7.689-13.23,13.41
		c0,0.178,3.039,0.178,3.039,0.357H65.716L65.716,124.895z"/>
	<polygon style="fill-rule:evenodd;clip-rule:evenodd;fill:#040606;" points="17.265,117.564 29.243,117.564 29.243,124.537 
		17.265,124.537 17.265,117.564 	"/>
	<polygon style="fill-rule:evenodd;clip-rule:evenodd;fill:#040606;" points="58.386,75.728 65.358,75.728 65.358,87.707 
		58.386,87.707 58.386,75.728 	"/>
	<polygon style="fill-rule:evenodd;clip-rule:evenodd;fill:#040606;" points="37.289,85.204 43.01,81.271 49.804,91.283 
		43.904,95.216 37.289,85.204 	"/>
	<polygon style="fill-rule:evenodd;clip-rule:evenodd;fill:#040606;" points="26.74,95.931 22.807,101.652 32.641,108.445 
		36.574,102.725 26.74,95.931 	"/>
</g>
</svg>
