<?xml version="1.0" standalone="no"?>
<!DOCTYPE svg PUBLIC "-//W3C//DTD SVG 20010904//EN"
 "http://www.w3.org/TR/2001/REC-SVG-20010904/DTD/svg10.dtd">
<svg version="1.0" xmlns="http://www.w3.org/2000/svg"
 width="468pt" height="468pt" viewBox="0 0 468 468"
 preserveAspectRatio="xMidYMid meet">
<g transform="translate(0,468) scale(0.093600,-0.093600)"
fill="#000000" stroke="none">
<path d="M3520 4433 c-19 -21 -75 -87 -124 -148 -50 -60 -95 -114 -102 -120
-6 -5 -57 -66 -114 -135 -57 -69 -106 -127 -110 -130 -3 -3 -39 -45 -79 -94
-40 -49 -93 -113 -119 -142 l-47 -54 -1362 0 -1363 0 0 -375 0 -375 1047 -2
1047 -3 -58 -70 c-33 -38 -64 -74 -70 -80 -7 -5 -54 -62 -106 -125 -52 -63
-99 -119 -105 -125 -7 -5 -57 -64 -113 -131 l-100 -121 -243 -6 c-133 -4 -480
-7 -771 -7 l-528 0 0 -380 0 -380 446 0 445 0 -48 -61 c-26 -34 -61 -76 -77
-93 -16 -17 -67 -78 -114 -136 -47 -58 -93 -112 -102 -122 -26 -25 -90 -104
-90 -111 0 -7 59 -37 73 -37 5 0 23 -6 40 -14 18 -8 64 -26 102 -41 39 -14 84
-32 100 -39 17 -8 62 -26 100 -40 39 -15 86 -34 105 -43 19 -8 51 -21 70 -28
37 -14 109 -42 190 -75 102 -41 155 -60 166 -60 6 0 40 37 77 83 36 45 79 97
96 115 16 17 69 80 117 140 48 59 95 114 104 122 10 8 50 56 90 105 40 50 89
108 109 130 20 22 66 76 103 121 l67 81 119 7 c153 8 1177 8 1925 0 l587 -7 0
386 0 387 -990 2 -989 3 64 84 c36 46 71 89 79 95 7 6 47 54 88 106 99 124
169 211 243 298 l60 72 723 0 722 0 0 375 0 375 -395 0 c-217 0 -395 2 -395 5
0 6 216 265 234 280 6 6 46 53 90 105 l78 94 -38 17 c-22 9 -61 26 -89 37
-102 40 -151 60 -200 80 -27 12 -88 35 -135 53 -47 18 -89 36 -95 41 -5 4 -15
8 -23 8 -7 0 -32 8 -55 18 -23 11 -69 29 -102 41 -33 13 -85 33 -115 46 -95
41 -101 41 -140 -2z"/>
</g>
</svg>
