<?xml version="1.0" encoding="UTF-8" standalone="no"?>
<!-- Created with Inkscape (http://www.inkscape.org/) -->
<svg
   xmlns:svg="http://www.w3.org/2000/svg"
   xmlns="http://www.w3.org/2000/svg"
   version="1.0"
   width="557.81201"
   height="150"
   viewBox="-214.533 -0.5 557.812 150"
   id="Layer_1"
   xml:space="preserve"><defs
   id="defs3349" />
<path
   d="M 331.202,120.82 C 331.202,129.424 324.229,136.405 315.617,136.405 L -186.876,136.405 C -195.483,136.405 -202.461,129.425 -202.461,120.82 L -202.461,28.183 C -202.461,19.571 -195.482,12.598 -186.876,12.598 L 315.617,12.598 C 324.229,12.598 331.202,19.572 331.202,28.183 L 331.202,120.82 z "
   style="fill:#ffffff;stroke:#000000;stroke-width:2.59750009"
   id="path3286" />
<path
   d="M -114.883,31.124 C -129.456,31.124 -139.301,42.861 -136.767,57.212 L -130.652,91.78 C -128.116,106.13 -114.115,117.875 -99.545,117.875 L 228.295,117.875 C 242.863,117.875 256.858,106.13 259.402,91.78 L 265.515,57.212 C 268.049,42.861 258.207,31.124 243.631,31.124 L -114.883,31.124 L -114.883,31.124 z "
   style="fill:none;stroke:#000000;stroke-width:2.59750009"
   id="path3288" />
<g
   id="g3290">
	<path
   d="M -173.357,61.375 C -166.106,61.375 -160.229,67.252 -160.229,74.503 C -160.229,81.748 -166.106,87.625 -173.357,87.625 C -180.608,87.625 -186.485,81.748 -186.485,74.503 C -186.485,67.252 -180.608,61.375 -173.357,61.375 z "
   style="fill:none;stroke:#000000;stroke-width:2.59750009"
   id="path3292" />
	<path
   d="M 302.1,61.375 C 309.349,61.375 315.227,67.252 315.227,74.503 C 315.227,81.748 309.349,87.625 302.1,87.625 C 294.855,87.625 288.972,81.748 288.972,74.503 C 288.972,67.252 294.854,61.375 302.1,61.375 z "
   style="fill:none;stroke:#000000;stroke-width:2.59750009"
   id="path3294" />
</g>
<g
   id="g3296">
	<circle
   cx="-107.47"
   cy="60.037998"
   r="5.8189998"
   style="fill:none;stroke:#000000;stroke-width:2.59750009"
   id="circle3298" />
	<circle
   cx="-78.821999"
   cy="60.037998"
   r="5.8189998"
   style="fill:none;stroke:#000000;stroke-width:2.59750009"
   id="circle3300" />
	<path
   d="M -50.181,54.223 C -46.969,54.223 -44.366,56.824 -44.366,60.038 C -44.366,63.251 -46.969,65.85 -50.181,65.85 C -53.394,65.85 -55.996,63.25 -55.996,60.038 C -55.996,56.823 -53.394,54.223 -50.181,54.223 z "
   style="fill:none;stroke:#000000;stroke-width:2.59750009"
   id="path3302" />
	<circle
   cx="-21.542999"
   cy="60.037998"
   r="5.8189998"
   style="fill:none;stroke:#000000;stroke-width:2.59750009"
   id="circle3304" />
	<path
   d="M -93.148,83.156 C -89.933,83.156 -87.328,85.76 -87.328,88.972 C -87.328,92.181 -89.933,94.788 -93.148,94.788 C -96.362,94.788 -98.967,92.181 -98.967,88.972 C -98.967,85.761 -96.362,83.156 -93.148,83.156 z "
   style="fill:none;stroke:#000000;stroke-width:2.59750009"
   id="path3306" />
	<path
   d="M -64.501,83.156 C -61.287,83.156 -58.681,85.76 -58.681,88.972 C -58.681,92.181 -61.287,94.788 -64.501,94.788 C -67.714,94.788 -70.32,92.181 -70.32,88.972 C -70.32,85.761 -67.714,83.156 -64.501,83.156 z "
   style="fill:none;stroke:#000000;stroke-width:2.59750009"
   id="path3308" />
	<path
   d="M -35.865,83.156 C -32.651,83.156 -30.049,85.76 -30.049,88.972 C -30.049,92.181 -32.652,94.788 -35.865,94.788 C -39.084,94.788 -41.687,92.181 -41.687,88.972 C -41.687,85.761 -39.084,83.156 -35.865,83.156 z "
   style="fill:none;stroke:#000000;stroke-width:2.59750009"
   id="path3310" />
	<path
   d="M -7.216,83.156 C -4.007,83.156 -1.404,85.76 -1.404,88.972 C -1.404,92.181 -4.007,94.788 -7.216,94.788 C -10.435,94.788 -13.035,92.181 -13.035,88.972 C -13.035,85.761 -10.435,83.156 -7.216,83.156 z "
   style="fill:none;stroke:#000000;stroke-width:2.59750009"
   id="path3312" />
	<path
   d="M 93.019,54.215 C 89.805,54.215 87.197,56.823 87.197,60.037 C 87.197,63.249 89.805,65.854 93.019,65.854 C 96.233,65.854 98.832,63.249 98.832,60.037 C 98.832,56.823 96.232,54.215 93.019,54.215 z "
   style="fill:none;stroke:#000000;stroke-width:2.59750009"
   id="path3314" />
	<path
   d="M 64.378,54.221 C 61.164,54.221 58.559,56.824 58.559,60.037 C 58.559,63.248 61.164,65.849 64.378,65.849 C 67.586,65.849 70.19,63.247 70.19,60.037 C 70.19,56.823 67.586,54.221 64.378,54.221 z "
   style="fill:none;stroke:#000000;stroke-width:2.59750009"
   id="path3316" />
	<circle
   cx="35.737"
   cy="60.035"
   r="5.8200002"
   style="fill:none;stroke:#000000;stroke-width:2.59750009"
   id="circle3318" />
	<path
   d="M 7.096,54.215 C 3.879,54.215 1.273,56.823 1.273,60.037 C 1.273,63.249 3.879,65.854 7.096,65.854 C 10.31,65.854 12.915,63.249 12.915,60.037 C 12.915,56.823 10.31,54.215 7.096,54.215 z "
   style="fill:none;stroke:#000000;stroke-width:2.59750009"
   id="path3320" />
	<path
   d="M 78.696,83.15 C 75.482,83.15 72.877,85.754 72.877,88.967 C 72.877,92.178 75.482,94.785 78.696,94.785 C 81.905,94.785 84.512,92.178 84.512,88.967 C 84.513,85.754 81.905,83.15 78.696,83.15 z "
   style="fill:none;stroke:#000000;stroke-width:2.59750009"
   id="path3322" />
	<circle
   cx="50.062"
   cy="88.968002"
   r="5.8179998"
   style="fill:none;stroke:#000000;stroke-width:2.59750009"
   id="circle3324" />
	<path
   d="M 21.413,83.15 C 18.2,83.15 15.601,85.754 15.601,88.967 C 15.601,92.178 18.2,94.783 21.413,94.783 C 24.629,94.783 27.227,92.178 27.227,88.967 C 27.227,85.754 24.629,83.15 21.413,83.15 z "
   style="fill:none;stroke:#000000;stroke-width:2.59750009"
   id="path3326" />
	<path
   d="M 236.22,54.215 C 233.004,54.215 230.396,56.823 230.396,60.037 C 230.396,63.249 233.004,65.854 236.22,65.854 C 239.424,65.854 242.032,63.249 242.032,60.037 C 242.031,56.823 239.424,54.215 236.22,54.215 z "
   style="fill:none;stroke:#000000;stroke-width:2.59750009"
   id="path3328" />
	<path
   d="M 221.888,83.15 C 218.677,83.15 216.076,85.754 216.076,88.967 C 216.076,92.178 218.677,94.783 221.888,94.783 C 225.105,94.783 227.709,92.178 227.709,88.967 C 227.709,85.754 225.104,83.15 221.888,83.15 z "
   style="fill:none;stroke:#000000;stroke-width:2.59750009"
   id="path3330" />
	<path
   d="M 121.657,54.214 C 124.871,54.214 127.469,56.82 127.469,60.034 C 127.469,63.247 124.871,65.849 121.657,65.849 C 118.443,65.849 115.833,63.246 115.833,60.034 C 115.833,56.82 118.443,54.214 121.657,54.214 z "
   style="fill:none;stroke:#000000;stroke-width:2.59750009"
   id="path3332" />
	<path
   d="M 150.293,54.215 C 153.51,54.215 156.117,56.82 156.117,60.034 C 156.117,63.243 153.51,65.848 150.293,65.848 C 147.09,65.848 144.481,63.243 144.481,60.034 C 144.481,56.82 147.09,54.215 150.293,54.215 z "
   style="fill:none;stroke:#000000;stroke-width:2.59750009"
   id="path3334" />
	<path
   d="M 178.933,54.214 C 182.147,54.214 184.756,56.82 184.756,60.034 C 184.756,63.247 182.147,65.849 178.933,65.849 C 175.729,65.849 173.121,63.246 173.121,60.034 C 173.121,56.82 175.729,54.214 178.933,54.214 z "
   style="fill:none;stroke:#000000;stroke-width:2.59750009"
   id="path3336" />
	<circle
   cx="207.58099"
   cy="60.032001"
   r="5.8179998"
   style="fill:none;stroke:#000000;stroke-width:2.59750009"
   id="circle3338" />
	<path
   d="M 107.335,83.144 C 110.549,83.144 113.149,85.751 113.149,88.962 C 113.149,92.171 110.548,94.779 107.335,94.779 C 104.122,94.779 101.516,92.171 101.516,88.962 C 101.516,85.751 104.121,83.144 107.335,83.144 z "
   style="fill:none;stroke:#000000;stroke-width:2.59750009"
   id="path3340" />
	<path
   d="M 135.977,83.144 C 139.191,83.144 141.798,85.751 141.798,88.962 C 141.798,92.171 139.191,94.779 135.977,94.779 C 132.76,94.779 130.163,92.171 130.163,88.962 C 130.162,85.751 132.76,83.144 135.977,83.144 z "
   style="fill:none;stroke:#000000;stroke-width:2.59750009"
   id="path3342" />
	<path
   d="M 164.612,83.144 C 167.826,83.144 170.434,85.751 170.434,88.962 C 170.434,92.171 167.826,94.779 164.612,94.779 C 161.398,94.779 158.791,92.171 158.791,88.962 C 158.791,85.751 161.398,83.144 164.612,83.144 z "
   style="fill:none;stroke:#000000;stroke-width:2.59750009"
   id="path3344" />
	<path
   d="M 193.262,83.144 C 196.476,83.144 199.074,85.751 199.074,88.962 C 199.074,92.171 196.476,94.779 193.262,94.779 C 190.048,94.779 187.448,92.171 187.448,88.962 C 187.447,85.751 190.048,83.144 193.262,83.144 z "
   style="fill:none;stroke:#000000;stroke-width:2.59750009"
   id="path3346" />
</g>
</svg>